<svg width="156" height="134" viewBox="0 0 156 134" fill="none" xmlns="http://www.w3.org/2000/svg">
<path opacity="0.4" d="M99.8885 86.2082C96.1463 85.0881 92.203 81.4613 88.0585 75.3279C84.0761 69.107 83.317 61.8801 85.7812 53.6473C88.2453 45.4144 93.5603 38.7823 101.726 33.7511C109.892 28.7198 118.216 27.4736 126.698 30.0125C135.181 32.5513 141.438 37.0746 145.471 43.5823C149.503 50.0899 150.25 57.585 147.711 66.0673C145.209 74.4249 140.313 82.6095 133.022 90.6209C125.856 98.6697 117.286 105.279 107.312 110.448C97.4627 115.655 87.9048 118.299 78.6384 118.38C75.1066 114.74 73.8443 110.557 74.8515 105.83C80.5497 103.593 85.8668 100.36 90.8029 96.1289C95.9011 91.8105 98.9297 88.5036 99.8885 86.2082ZM32.7157 66.1026C29.0982 65.0199 25.2173 61.4118 21.0728 55.2783C17.0904 49.0575 16.3313 41.8306 18.7954 33.5977C21.297 25.2401 26.612 18.608 34.7404 13.7015C42.9062 8.67026 51.2303 7.42406 59.7126 9.96292C68.195 12.5018 74.39 17.0064 78.2978 23.4767C82.3302 29.9844 83.077 37.4794 80.5382 45.9618C78.0367 54.3194 73.1405 62.5039 65.8496 70.5154C58.6834 78.5642 50.1133 85.1733 40.1392 90.3429C30.2899 95.5499 20.732 98.1937 11.4656 98.2744C7.97113 94.5101 6.70884 90.3267 7.67872 85.724C13.5016 83.5253 18.8811 80.3104 23.8172 76.0794C28.7534 71.8484 31.7195 68.5228 32.7157 66.1026Z" fill="#FFC700"/>
</svg>
